<svg xmlns="http://www.w3.org/2000/svg" width="70" height="62" viewBox="0 0 70 62" fill="none"><g id="Group"><path id="Vector" fill-rule="evenodd" clip-rule="evenodd" d="M12.9575 56.8204L0.686726 33.6503C-0.145575 32.288 -0.145575 30.8916 0.686726 29.4726L13.4862 5.01968C14.3747 3.36223 15.3982 3.33953 16.3317 5.01968L30.3684 29.4613C31.3019 30.9371 31.1444 32.2199 30.2784 33.707L16.8716 56.809C15.3307 59.6131 14.116 58.8865 12.9688 56.8204" fill="black"></path><path id="Vector_2" fill-rule="evenodd" clip-rule="evenodd" d="M33.7699 27.2476L19.4296 2.19295C18.676 0.796616 19.4858 -0.00939941 20.8243 -0.00939941H52.7104C53.9814 -0.00939941 54.7574 0.399285 55.3085 1.42099L69.7388 26.8843C70.2562 27.8038 69.7613 28.9845 68.4004 28.9845H37.2903C35.2996 28.9845 34.636 28.5758 33.7812 27.2476" fill="black"></path><path id="Vector_3" fill-rule="evenodd" clip-rule="evenodd" d="M37.1848 33.0828H67.2263C68.801 33.1282 69.0821 34.2294 68.4186 35.3986L54.067 60.4532C53.4371 61.5658 52.6948 62.0312 51.5476 62.0085H21.1011C20.0551 62.0085 19.2903 60.9528 19.9764 59.7608L33.9343 35.3873C34.9353 33.639 35.6101 33.1622 37.1735 33.0828" fill="black"></path></g></svg>